<?xml version="1.0" encoding="UTF-8" ?>
<svg version="1.1" width="320" height="320" xmlns="http://www.w3.org/2000/svg" shape-rendering="crispEdges">
<rect x="0" y="0" width="10" height="10" fill="#8FCB62" />
<rect x="10" y="0" width="90" height="10" fill="#191023" />
<rect x="100" y="0" width="40" height="10" fill="#BB9A3E" />
<rect x="140" y="0" width="40" height="10" fill="#191023" />
<rect x="180" y="0" width="40" height="10" fill="#BB9A3E" />
<rect x="220" y="0" width="90" height="10" fill="#191023" />
<rect x="310" y="0" width="10" height="10" fill="#8FCB62" />
<rect x="0" y="10" width="10" height="40" fill="#191023" />
<rect x="10" y="10" width="30" height="20" fill="#C2C2C2" />
<rect x="40" y="10" width="20" height="20" fill="#A6A6A6" />
<rect x="60" y="10" width="20" height="20" fill="#C2C2C2" />
<rect x="80" y="10" width="20" height="20" fill="#AAAAAA" />
<rect x="100" y="10" width="10" height="20" fill="#191023" />
<rect x="110" y="10" width="20" height="10" fill="#F4F5EF" />
<rect x="130" y="10" width="10" height="20" fill="#191023" />
<rect x="140" y="10" width="40" height="20" fill="#E3E4DE" />
<rect x="180" y="10" width="10" height="20" fill="#191023" />
<rect x="190" y="10" width="20" height="10" fill="#F6E455" />
<rect x="210" y="10" width="10" height="20" fill="#191023" />
<rect x="220" y="10" width="20" height="20" fill="#E6E6E6" />
<rect x="240" y="10" width="40" height="40" fill="#F8F8F8" />
<rect x="280" y="10" width="30" height="20" fill="#C2C2C2" />
<rect x="310" y="10" width="10" height="40" fill="#191023" />
<rect x="110" y="20" width="20" height="10" fill="#191023" />
<rect x="190" y="20" width="20" height="10" fill="#191023" />
<rect x="10" y="30" width="20" height="20" fill="#C2C2C2" />
<rect x="30" y="30" width="10" height="20" fill="#7A7A7A" />
<rect x="40" y="30" width="20" height="20" fill="#8A8A8A" />
<rect x="60" y="30" width="20" height="20" fill="#BCBCBC" />
<rect x="80" y="30" width="20" height="20" fill="#BEBEBE" />
<rect x="100" y="30" width="20" height="20" fill="#E3E4DE" />
<rect x="120" y="30" width="20" height="20" fill="#FFFFFA" />
<rect x="140" y="30" width="20" height="20" fill="#E56EA7" />
<rect x="160" y="30" width="20" height="20" fill="#EE72AD" />
<rect x="180" y="30" width="20" height="20" fill="#FFFFFF" />
<rect x="200" y="30" width="20" height="20" fill="#E3E4DE" />
<rect x="220" y="30" width="20" height="20" fill="#F8F8F8" />
<rect x="280" y="30" width="10" height="20" fill="#F8F8F8" />
<rect x="290" y="30" width="20" height="20" fill="#C2C2C2" />
<rect x="0" y="50" width="10" height="30" fill="#8FCB62" />
<rect x="10" y="50" width="20" height="10" fill="#191023" />
<rect x="30" y="50" width="10" height="40" fill="#686868" />
<rect x="40" y="50" width="20" height="20" fill="#7A7A7A" />
<rect x="60" y="50" width="20" height="20" fill="#868686" />
<rect x="80" y="50" width="20" height="20" fill="#E3E4DE" />
<rect x="100" y="50" width="20" height="20" fill="#CD6295" />
<rect x="120" y="50" width="20" height="20" fill="#D26498" />
<rect x="140" y="50" width="20" height="20" fill="#DC69A0" />
<rect x="160" y="50" width="20" height="20" fill="#DF6BA2" />
<rect x="180" y="50" width="20" height="20" fill="#E46DA5" />
<rect x="200" y="50" width="20" height="20" fill="#FC79B7" />
<rect x="220" y="50" width="20" height="20" fill="#E3E4DE" />
<rect x="240" y="50" width="20" height="20" fill="#F8F8F8" />
<rect x="260" y="50" width="30" height="20" fill="#ECECEC" />
<rect x="290" y="50" width="20" height="10" fill="#191023" />
<rect x="310" y="50" width="10" height="30" fill="#8FCB62" />
<rect x="10" y="60" width="10" height="10" fill="#8FCB62" />
<rect x="20" y="60" width="10" height="40" fill="#191023" />
<rect x="290" y="60" width="10" height="40" fill="#191023" />
<rect x="300" y="60" width="10" height="10" fill="#8FCB62" />
<rect x="10" y="70" width="10" height="10" fill="#BB9A3E" />
<rect x="40" y="70" width="20" height="40" fill="#686868" />
<rect x="60" y="70" width="20" height="20" fill="#8D8E8A" />
<rect x="80" y="70" width="20" height="20" fill="#CA6193" />
<rect x="100" y="70" width="20" height="20" fill="#CC6294" />
<rect x="120" y="70" width="20" height="20" fill="#D06498" />
<rect x="140" y="70" width="20" height="20" fill="#DD6AA1" />
<rect x="160" y="70" width="20" height="20" fill="#C96092" />
<rect x="180" y="70" width="20" height="20" fill="#D7679C" />
<rect x="200" y="70" width="20" height="20" fill="#E66EA7" />
<rect x="220" y="70" width="20" height="20" fill="#F977B5" />
<rect x="240" y="70" width="20" height="40" fill="#FFFFFF" />
<rect x="260" y="70" width="20" height="20" fill="#E2E2E2" />
<rect x="280" y="70" width="10" height="20" fill="#D6D6D6" />
<rect x="300" y="70" width="10" height="10" fill="#BB9A3E" />
<rect x="0" y="80" width="10" height="160" fill="#BB9A3E" />
<rect x="10" y="80" width="10" height="80" fill="#F4F5EF" />
<rect x="300" y="80" width="10" height="160" fill="#F6E455" />
<rect x="310" y="80" width="10" height="160" fill="#BB9A3E" />
<rect x="30" y="90" width="10" height="20" fill="#191023" />
<rect x="60" y="90" width="20" height="20" fill="#7A7A77" />
<rect x="80" y="90" width="20" height="20" fill="#94476C" />
<rect x="100" y="90" width="20" height="20" fill="#C15C8C" />
<rect x="120" y="90" width="20" height="20" fill="#CC6295" />
<rect x="140" y="90" width="20" height="30" fill="#F8C7A4" />
<rect x="160" y="90" width="20" height="20" fill="#D16498" />
<rect x="180" y="90" width="20" height="20" fill="#C65F90" />
<rect x="200" y="90" width="20" height="20" fill="#D7679C" />
<rect x="220" y="90" width="20" height="20" fill="#FF7BBB" />
<rect x="260" y="90" width="20" height="20" fill="#D4D4D4" />
<rect x="280" y="90" width="10" height="20" fill="#191023" />
<rect x="20" y="100" width="10" height="140" fill="#BB9A3E" />
<rect x="290" y="100" width="10" height="140" fill="#BB9A3E" />
<rect x="30" y="110" width="10" height="120" fill="#F6E455" />
<rect x="40" y="110" width="20" height="10" fill="#191023" />
<rect x="60" y="110" width="20" height="10" fill="#773956" />
<rect x="80" y="110" width="20" height="10" fill="#A14D75" />
<rect x="100" y="110" width="20" height="10" fill="#C05C8C" />
<rect x="120" y="110" width="20" height="10" fill="#F8C7A4" />
<rect x="160" y="110" width="20" height="10" fill="#F8C7A4" />
<rect x="180" y="110" width="20" height="10" fill="#E36DA5" />
<rect x="200" y="110" width="20" height="10" fill="#D36599" />
<rect x="220" y="110" width="20" height="10" fill="#F374B1" />
<rect x="240" y="110" width="20" height="20" fill="#FF7BBA" />
<rect x="260" y="110" width="20" height="10" fill="#191023" />
<rect x="280" y="110" width="10" height="50" fill="#F6E455" />
<rect x="40" y="120" width="10" height="100" fill="#F6E455" />
<rect x="50" y="120" width="10" height="110" fill="#191023" />
<rect x="60" y="120" width="10" height="10" fill="#773956" />
<rect x="70" y="120" width="80" height="10" fill="#130C1B" />
<rect x="150" y="120" width="20" height="10" fill="#F8C7A4" />
<rect x="170" y="120" width="70" height="10" fill="#130C1B" />
<rect x="260" y="120" width="10" height="110" fill="#191023" />
<rect x="270" y="120" width="10" height="100" fill="#F6E455" />
<rect x="60" y="130" width="20" height="20" fill="#130C1B" />
<rect x="80" y="130" width="40" height="10" fill="#B45683" />
<rect x="120" y="130" width="20" height="10" fill="#F8C7A4" />
<rect x="140" y="130" width="40" height="20" fill="#130C1B" />
<rect x="180" y="130" width="20" height="10" fill="#F8C7A4" />
<rect x="200" y="130" width="20" height="10" fill="#B45683" />
<rect x="220" y="130" width="20" height="10" fill="#F776B3" />
<rect x="240" y="130" width="20" height="20" fill="#130C1B" />
<rect x="80" y="140" width="20" height="10" fill="#B45683" />
<rect x="100" y="140" width="10" height="10" fill="#CC6294" />
<rect x="110" y="140" width="20" height="60" fill="#130C1B" />
<rect x="130" y="140" width="10" height="40" fill="#F8C7A4" />
<rect x="180" y="140" width="10" height="40" fill="#F8C7A4" />
<rect x="190" y="140" width="20" height="60" fill="#130C1B" />
<rect x="210" y="140" width="10" height="10" fill="#D9689E" />
<rect x="220" y="140" width="20" height="10" fill="#EA70AA" />
<rect x="60" y="150" width="10" height="80" fill="#773956" />
<rect x="70" y="150" width="10" height="30" fill="#130C1B" />
<rect x="80" y="150" width="20" height="20" fill="#A14D75" />
<rect x="100" y="150" width="10" height="40" fill="#F8C7A4" />
<rect x="140" y="150" width="10" height="30" fill="#130C1B" />
<rect x="150" y="150" width="20" height="60" fill="#F8C7A4" />
<rect x="170" y="150" width="10" height="30" fill="#130C1B" />
<rect x="210" y="150" width="10" height="40" fill="#F8C7A4" />
<rect x="220" y="150" width="20" height="20" fill="#EB71AB" />
<rect x="240" y="150" width="10" height="30" fill="#130C1B" />
<rect x="250" y="150" width="10" height="20" fill="#F776B3" />
<rect x="10" y="160" width="10" height="80" fill="#F6E455" />
<rect x="280" y="160" width="10" height="70" fill="#F4F5EF" />
<rect x="80" y="170" width="20" height="10" fill="#7E3C5C" />
<rect x="220" y="170" width="20" height="10" fill="#E56EA7" />
<rect x="250" y="170" width="10" height="20" fill="#E46DA5" />
<rect x="70" y="180" width="10" height="50" fill="#773956" />
<rect x="80" y="180" width="10" height="10" fill="#130C1B" />
<rect x="90" y="180" width="10" height="10" fill="#CC6294" />
<rect x="130" y="180" width="10" height="10" fill="#130C1B" />
<rect x="140" y="180" width="10" height="30" fill="#F8C7A4" />
<rect x="170" y="180" width="10" height="30" fill="#F8C7A4" />
<rect x="180" y="180" width="10" height="10" fill="#130C1B" />
<rect x="220" y="180" width="10" height="10" fill="#E46DA5" />
<rect x="230" y="180" width="10" height="10" fill="#130C1B" />
<rect x="240" y="180" width="10" height="10" fill="#E46DA5" />
<rect x="80" y="190" width="10" height="20" fill="#E784A8" />
<rect x="90" y="190" width="20" height="10" fill="#130C1B" />
<rect x="130" y="190" width="10" height="40" fill="#F8C7A4" />
<rect x="180" y="190" width="10" height="40" fill="#F8C7A4" />
<rect x="210" y="190" width="20" height="10" fill="#130C1B" />
<rect x="230" y="190" width="10" height="10" fill="#E46DA5" />
<rect x="240" y="190" width="20" height="20" fill="#E86FA9" />
<rect x="90" y="200" width="30" height="10" fill="#E784A8" />
<rect x="120" y="200" width="10" height="30" fill="#F8C7A4" />
<rect x="190" y="200" width="10" height="30" fill="#F8C7A4" />
<rect x="200" y="200" width="40" height="10" fill="#E784A8" />
<rect x="80" y="210" width="40" height="20" fill="#773956" />
<rect x="140" y="210" width="40" height="20" fill="#E784A8" />
<rect x="200" y="210" width="20" height="20" fill="#AC537D" />
<rect x="220" y="210" width="20" height="20" fill="#BB5988" />
<rect x="240" y="210" width="20" height="10" fill="#F576B2" />
<rect x="40" y="220" width="10" height="10" fill="#191023" />
<rect x="240" y="220" width="10" height="10" fill="#C15C8C" />
<rect x="250" y="220" width="10" height="10" fill="#F576B2" />
<rect x="270" y="220" width="10" height="10" fill="#191023" />
<rect x="30" y="230" width="10" height="90" fill="#191023" />
<rect x="40" y="230" width="40" height="20" fill="#7A7A77" />
<rect x="80" y="230" width="60" height="10" fill="#191023" />
<rect x="140" y="230" width="40" height="20" fill="#F8C7A4" />
<rect x="180" y="230" width="60" height="10" fill="#191023" />
<rect x="240" y="230" width="20" height="20" fill="#C3C3BF" />
<rect x="260" y="230" width="20" height="20" fill="#FFFFFF" />
<rect x="280" y="230" width="10" height="90" fill="#191023" />
<rect x="0" y="240" width="10" height="80" fill="#8FCB62" />
<rect x="10" y="240" width="10" height="10" fill="#BB9A3E" />
<rect x="20" y="240" width="10" height="10" fill="#F6E455" />
<rect x="80" y="240" width="20" height="10" fill="#191023" />
<rect x="100" y="240" width="20" height="10" fill="#F6E455" />
<rect x="120" y="240" width="20" height="10" fill="#191023" />
<rect x="180" y="240" width="20" height="10" fill="#191023" />
<rect x="200" y="240" width="20" height="10" fill="#F6E455" />
<rect x="220" y="240" width="20" height="10" fill="#191023" />
<rect x="290" y="240" width="10" height="10" fill="#F6E455" />
<rect x="300" y="240" width="10" height="10" fill="#BB9A3E" />
<rect x="310" y="240" width="10" height="80" fill="#8FCB62" />
<rect x="10" y="250" width="10" height="70" fill="#8FCB62" />
<rect x="20" y="250" width="10" height="10" fill="#BB9A3E" />
<rect x="40" y="250" width="20" height="20" fill="#E3E4DE" />
<rect x="60" y="250" width="40" height="20" fill="#7A7A77" />
<rect x="100" y="250" width="20" height="20" fill="#191023" />
<rect x="120" y="250" width="20" height="20" fill="#BEBEBA" />
<rect x="140" y="250" width="20" height="20" fill="#2B2642" />
<rect x="160" y="250" width="20" height="20" fill="#312C4C" />
<rect x="180" y="250" width="20" height="20" fill="#EBECE6" />
<rect x="200" y="250" width="20" height="20" fill="#191023" />
<rect x="220" y="250" width="20" height="20" fill="#A6A7A3" />
<rect x="240" y="250" width="20" height="20" fill="#E3E4DF" />
<rect x="260" y="250" width="20" height="20" fill="#E3E4DE" />
<rect x="290" y="250" width="10" height="10" fill="#BB9A3E" />
<rect x="300" y="250" width="10" height="70" fill="#8FCB62" />
<rect x="20" y="260" width="10" height="60" fill="#8FCB62" />
<rect x="290" y="260" width="10" height="60" fill="#8FCB62" />
<rect x="40" y="270" width="20" height="50" fill="#191626" />
<rect x="60" y="270" width="20" height="20" fill="#E3E4DE" />
<rect x="80" y="270" width="10" height="20" fill="#A4A4A0" />
<rect x="90" y="270" width="10" height="10" fill="#989995" />
<rect x="100" y="270" width="20" height="20" fill="#28243D" />
<rect x="120" y="270" width="20" height="20" fill="#CBCCC7" />
<rect x="140" y="270" width="20" height="20" fill="#27233B" />
<rect x="160" y="270" width="20" height="20" fill="#2A2640" />
<rect x="180" y="270" width="20" height="20" fill="#F2F3ED" />
<rect x="200" y="270" width="20" height="20" fill="#332E4E" />
<rect x="220" y="270" width="20" height="20" fill="#FFFFFF" />
<rect x="240" y="270" width="20" height="20" fill="#E3E4DE" />
<rect x="260" y="270" width="20" height="20" fill="#383256" />
<rect x="90" y="280" width="10" height="10" fill="#A4A4A0" />
<rect x="60" y="290" width="20" height="30" fill="#191626" />
<rect x="80" y="290" width="20" height="20" fill="#868783" />
<rect x="100" y="290" width="20" height="20" fill="#1E1B2E" />
<rect x="120" y="290" width="20" height="20" fill="#242138" />
<rect x="140" y="290" width="20" height="20" fill="#2A2641" />
<rect x="160" y="290" width="20" height="20" fill="#2D2946" />
<rect x="180" y="290" width="20" height="20" fill="#2D2845" />
<rect x="200" y="290" width="20" height="20" fill="#2F2B49" />
<rect x="220" y="290" width="20" height="20" fill="#F8F9F3" />
<rect x="240" y="290" width="20" height="20" fill="#332E4E" />
<rect x="260" y="290" width="20" height="20" fill="#363154" />
<rect x="80" y="310" width="20" height="10" fill="#191023" />
<rect x="100" y="310" width="20" height="10" fill="#7A7A77" />
<rect x="120" y="310" width="20" height="10" fill="#B5B5B1" />
<rect x="140" y="310" width="20" height="10" fill="#D2D3CE" />
<rect x="160" y="310" width="20" height="10" fill="#E2E3DE" />
<rect x="180" y="310" width="20" height="10" fill="#F0F1EB" />
<rect x="200" y="310" width="20" height="10" fill="#ECEDE7" />
<rect x="220" y="310" width="20" height="10" fill="#191023" />
<rect x="240" y="310" width="20" height="10" fill="#332E4F" />
<rect x="260" y="310" width="20" height="10" fill="#2F2B49" />
</svg>